<svg version="1.1" viewBox="0.0 0.0 600.0 371.0" fill="none" stroke="none" stroke-linecap="square" stroke-miterlimit="10" width="600" height="371" xmlns:xlink="http://www.w3.org/1999/xlink" xmlns="http://www.w3.org/2000/svg"><path fill="#ffffff" d="M0 0L600.0 0L600.0 371.0L0 371.0L0 0Z" fill-rule="nonzero"/><path stroke="#333333" stroke-width="1.0" stroke-linecap="butt" d="M91.5 88.5L91.5 300.5" fill-rule="nonzero"/><path stroke="#cccccc" stroke-width="1.0" stroke-linecap="butt" d="M197.5 88.5L197.5 300.5" fill-rule="nonzero"/><path stroke="#cccccc" stroke-width="1.0" stroke-linecap="butt" d="M303.5 88.5L303.5 300.5" fill-rule="nonzero"/><path stroke="#cccccc" stroke-width="1.0" stroke-linecap="butt" d="M410.5 88.5L410.5 300.5" fill-rule="nonzero"/><path stroke="#cccccc" stroke-width="1.0" stroke-linecap="butt" d="M516.5 88.5L516.5 300.5" fill-rule="nonzero"/><path stroke="#333333" stroke-width="1.0" stroke-linecap="butt" d="M84.5 300.5L581.5 300.5" fill-rule="nonzero"/><path stroke="#cccccc" stroke-width="1.0" stroke-linecap="butt" d="M84.5 229.5L581.5 229.5" fill-rule="nonzero"/><path stroke="#cccccc" stroke-width="1.0" stroke-linecap="butt" d="M84.5 159.5L581.5 159.5" fill-rule="nonzero"/><path stroke="#cccccc" stroke-width="1.0" stroke-linecap="butt" d="M84.5 88.5L581.5 88.5" fill-rule="nonzero"/><clipPath id="id_0"><path d="M84.55 88.28333L581.45 88.28333L581.45 300.45L84.55 300.45L84.55 88.28333Z" clip-rule="nonzero"/></clipPath><path stroke="#4285f4" stroke-width="2.0" stroke-linecap="butt" stroke-opacity="0.4" clip-path="url(#id_0)" d="M0 339.57208L581.45 81.412895" fill-rule="nonzero"/><path fill="#4285f4" clip-path="url(#id_0)" d="M414.50674 159.00555C414.50674 161.49083 412.492 163.50555 410.00674 163.50555C407.52145 163.50555 405.50674 161.49083 405.50674 159.00555C405.50674 156.52028 407.52145 154.50555 410.00674 154.50555C412.492 154.50555 414.50674 156.52028 414.50674 159.00555Z" fill-rule="nonzero"/><path fill="#4285f4" clip-path="url(#id_0)" d="M579.14185 88.28333C579.14185 90.768616 577.1271 92.78333 574.64185 92.78333C572.15656 92.78333 570.14185 90.768616 570.14185 88.28333C570.14185 85.79805 572.15656 83.78333 574.64185 83.78333C577.1271 83.78333 579.14185 85.79805 579.14185 88.28333Z" fill-rule="nonzero"/><path fill="#4285f4" clip-path="url(#id_0)" d="M180.83113 265.0889C180.83113 267.57416 178.8164 269.5889 176.33113 269.5889C173.84584 269.5889 171.83113 267.57416 171.83113 265.0889C171.83113 262.6036 173.84584 260.5889 176.33113 260.5889C178.8164 260.5889 180.83113 262.6036 180.83113 265.0889Z" fill-rule="nonzero"/><path fill="#4285f4" clip-path="url(#id_0)" d="M255.18246 229.72778C255.18246 232.21306 253.16774 234.22778 250.68246 234.22778C248.19717 234.22778 246.18246 232.21306 246.18246 229.72778C246.18246 227.2425 248.19717 225.22778 250.68246 225.22778C253.16774 225.22778 255.18246 227.2425 255.18246 229.72778Z" fill-rule="nonzero"/><path fill="#4285f4" clip-path="url(#id_0)" d="M218.00679 243.87222C218.00679 246.3575 215.99208 248.37222 213.50679 248.37222C211.02151 248.37222 209.00679 246.3575 209.00679 243.87222C209.00679 241.38695 211.02151 239.37222 213.50679 239.37222C215.99208 239.37222 218.00679 241.38695 218.00679 243.87222Z" fill-rule="nonzero"/><path fill="#4285f4" clip-path="url(#id_0)" d="M191.45274 258.01666C191.45274 260.50195 189.43803 262.51666 186.95274 262.51666C184.46747 262.51666 182.45274 260.50195 182.45274 258.01666C182.45274 255.53139 184.46747 253.51666 186.95274 253.51666C189.43803 253.51666 191.45274 255.53139 191.45274 258.01666Z" fill-rule="nonzero"/><path fill="#4285f4" clip-path="url(#id_0)" d="M125.067635 286.30554C125.067635 288.79083 123.05291 290.80554 120.567635 290.80554C118.08235 290.80554 116.067635 288.79083 116.067635 286.30554C116.067635 283.82028 118.08235 281.80554 120.567635 281.80554C123.05291 281.80554 125.067635 283.82028 125.067635 286.30554Z" fill-rule="nonzero"/><path fill="#4285f4" clip-path="url(#id_0)" d="M143.65547 279.23334C143.65547 281.71863 141.64075 283.73334 139.15547 283.73334C136.67018 283.73334 134.65547 281.71863 134.65547 279.23334C134.65547 276.74805 136.67018 274.73334 139.15547 274.73334C141.64075 274.73334 143.65547 276.74805 143.65547 279.23334Z" fill-rule="nonzero"/><path fill="#4285f4" clip-path="url(#id_0)" d="M170.2095 272.1611C170.2095 274.6464 168.1948 276.6611 165.7095 276.6611C163.22423 276.6611 161.2095 274.6464 161.2095 272.1611C161.2095 269.67584 163.22423 267.6611 165.7095 267.6611C168.1948 267.6611 170.2095 269.67584 170.2095 272.1611Z" fill-rule="nonzero"/><path fill="#4285f4" clip-path="url(#id_0)" d="M103.824394 293.37778C103.824394 295.86307 101.80968 297.87778 99.324394 297.87778C96.83911 297.87778 94.824394 295.86307 94.824394 293.37778C94.824394 290.8925 96.83911 288.87778 99.324394 288.87778C101.80968 288.87778 103.824394 290.8925 103.824394 293.37778Z" fill-rule="nonzero"/><path fill="#4285f4" clip-path="url(#id_0)" d="M95.858185 300.45C95.858185 302.93527 93.84346 304.95 91.358185 304.95C88.8729 304.95 86.858185 302.93527 86.858185 300.45C86.858185 297.96472 88.8729 295.95 91.358185 295.95C93.84346 295.95 95.858185 297.96472 95.858185 300.45Z" fill-rule="nonzero"/><path fill="#4285f4" clip-path="url(#id_0)" d="M318.91217 194.36667C318.91217 196.85194 316.89746 198.86667 314.41217 198.86667C311.92688 198.86667 309.91217 196.85194 309.91217 194.36667C309.91217 191.88138 311.92688 189.86667 314.41217 189.86667C316.89746 189.86667 318.91217 191.88138 318.91217 194.36667Z" fill-rule="nonzero"/><path fill="#4285f4" clip-path="url(#id_0)" d="M281.7365 212.04723C281.7365 214.5325 279.72177 216.54723 277.2365 216.54723C274.75122 216.54723 272.7365 214.5325 272.7365 212.04723C272.7365 209.56194 274.75122 207.54723 277.2365 207.54723C279.72177 207.54723 281.7365 209.56194 281.7365 212.04723Z" fill-rule="nonzero"/><path fill="#4285f4" clip-path="url(#id_0)" d="M292.35812 212.04723C292.35812 214.5325 290.3434 216.54723 287.85812 216.54723C285.37283 216.54723 283.35812 214.5325 283.35812 212.04723C283.35812 209.56194 285.37283 207.54723 287.85812 207.54723C290.3434 207.54723 292.35812 209.56194 292.35812 212.04723Z" fill-rule="nonzero"/><path fill="#4285f4" clip-path="url(#id_0)" d="M329.53378 194.36667C329.53378 196.85194 327.51907 198.86667 325.03378 198.86667C322.5485 198.86667 320.53378 196.85194 320.53378 194.36667C320.53378 191.88138 322.5485 189.86667 325.03378 189.86667C327.51907 189.86667 329.53378 191.88138 329.53378 194.36667Z" fill-rule="nonzero"/><path fill="#4285f4" clip-path="url(#id_0)" d="M287.0473 212.04723C287.0473 214.5325 285.0326 216.54723 282.5473 216.54723C280.06204 216.54723 278.0473 214.5325 278.0473 212.04723C278.0473 209.56194 280.06204 207.54723 282.5473 207.54723C285.0326 207.54723 287.0473 209.56194 287.0473 212.04723Z" fill-rule="nonzero"/><path fill="#4285f4" clip-path="url(#id_0)" d="M239.25003 229.72778C239.25003 232.21306 237.2353 234.22778 234.75003 234.22778C232.26476 234.22778 230.25003 232.21306 230.25003 229.72778C230.25003 227.2425 232.26476 225.22778 234.75003 225.22778C237.2353 225.22778 239.25003 227.2425 239.25003 229.72778Z" fill-rule="nonzero"/><path fill="#000000" d="M296.92188 349.45L296.92188 340.85626L299.89062 340.85626Q300.89062 340.85626 301.42188 340.98126Q302.15625 341.15314 302.67188 341.59064Q303.35938 342.16876 303.6875 343.075Q304.03125 343.96564 304.03125 345.10626Q304.03125 346.09064 303.79688 346.84064Q303.57812 347.59064 303.21875 348.09064Q302.85938 348.59064 302.42188 348.8719Q302.0 349.15314 301.40625 349.3094Q300.8125 349.45 300.03125 349.45L296.92188 349.45ZM298.0625 348.4344L299.89062 348.4344Q300.75 348.4344 301.23438 348.27814Q301.71875 348.1219 302.0 347.825Q302.40625 347.4344 302.625 346.7469Q302.85938 346.0594 302.85938 345.09064Q302.85938 343.7469 302.40625 343.02814Q301.96875 342.29376 301.34375 342.04376Q300.875 341.8719 299.875 341.8719L298.0625 341.8719L298.0625 348.4344ZM305.79688 342.075L305.79688 340.85626L306.85938 340.85626L306.85938 342.075L305.79688 342.075ZM305.79688 349.45L305.79688 343.23126L306.85938 343.23126L306.85938 349.45L305.79688 349.45ZM308.375 347.59064L309.40625 347.4344Q309.5 348.0594 309.89062 348.3875Q310.29688 348.71564 311.03125 348.71564Q311.75 348.71564 312.09375 348.4344Q312.45312 348.1375 312.45312 347.73126Q312.45312 347.3719 312.14062 347.16876Q311.92188 347.02814 311.0625 346.8094Q309.90625 346.5125 309.45312 346.3094Q309.01562 346.09064 308.78125 345.71564Q308.54688 345.34064 308.54688 344.8719Q308.54688 344.46564 308.73438 344.10626Q308.92188 343.7469 309.25 343.5125Q309.5 343.34064 309.92188 343.21564Q310.34375 343.09064 310.84375 343.09064Q311.5625 343.09064 312.10938 343.3094Q312.67188 343.5125 312.9375 343.8719Q313.20312 344.23126 313.29688 344.825L312.26562 344.96564Q312.20312 344.4969 311.85938 344.23126Q311.53125 343.95 310.90625 343.95Q310.1875 343.95 309.875 344.2Q309.5625 344.4344 309.5625 344.7625Q309.5625 344.96564 309.6875 345.1219Q309.82812 345.29376 310.09375 345.40314Q310.25 345.46564 311.03125 345.66876Q312.15625 345.98126 312.59375 346.16876Q313.03125 346.35626 313.28125 346.71564Q313.53125 347.075 313.53125 347.6219Q313.53125 348.15314 313.21875 348.6219Q312.92188 349.075 312.34375 349.34064Q311.76562 349.59064 311.03125 349.59064Q309.8125 349.59064 309.17188 349.09064Q308.54688 348.575 308.375 347.59064ZM318.09375 348.5125L318.25 349.4344Q317.79688 349.52814 317.45312 349.52814Q316.875 349.52814 316.5625 349.35626Q316.25 349.16876 316.10938 348.8719Q315.98438 348.575 315.98438 347.6219L315.98438 344.04376L315.21875 344.04376L315.21875 343.23126L315.98438 343.23126L315.98438 341.6844L317.03125 341.0594L317.03125 343.23126L318.09375 343.23126L318.09375 344.04376L317.03125 344.04376L317.03125 347.6844Q317.03125 348.1375 317.07812 348.2625Q317.14062 348.3875 317.26562 348.46564Q317.39062 348.54376 317.625 348.54376Q317.8125 348.54376 318.09375 348.5125ZM322.85938 348.6844Q322.26562 349.1844 321.71875 349.3875Q321.1875 349.59064 320.5625 349.59064Q319.53125 349.59064 318.98438 349.09064Q318.4375 348.59064 318.4375 347.8094Q318.4375 347.35626 318.64062 346.98126Q318.84375 346.59064 319.1875 346.3719Q319.53125 346.1375 319.95312 346.02814Q320.25 345.9344 320.89062 345.85626Q322.15625 345.71564 322.76562 345.4969Q322.76562 345.27814 322.76562 345.23126Q322.76562 344.575 322.46875 344.3094Q322.0625 343.96564 321.26562 343.96564Q320.53125 343.96564 320.17188 344.23126Q319.8125 344.48126 319.64062 345.1375L318.60938 344.9969Q318.75 344.34064 319.07812 343.9344Q319.40625 343.52814 320.01562 343.3094Q320.625 343.09064 321.42188 343.09064Q322.21875 343.09064 322.71875 343.27814Q323.21875 343.46564 323.45312 343.7469Q323.6875 344.02814 323.78125 344.46564Q323.82812 344.73126 323.82812 345.4344L323.82812 346.84064Q323.82812 348.3094 323.89062 348.7Q323.96875 349.09064 324.17188 349.45L323.0625 349.45Q322.90625 349.1219 322.85938 348.6844ZM322.76562 346.325Q322.1875 346.5594 321.04688 346.73126Q320.39062 346.825 320.125 346.95Q319.85938 347.0594 319.70312 347.27814Q319.5625 347.4969 319.5625 347.77814Q319.5625 348.2 319.875 348.48126Q320.20312 348.7625 320.8125 348.7625Q321.42188 348.7625 321.89062 348.4969Q322.375 348.23126 322.59375 347.7625Q322.76562 347.40314 322.76562 346.71564L322.76562 346.325ZM325.79688 349.45L325.79688 343.23126L326.73438 343.23126L326.73438 344.10626Q327.42188 343.09064 328.71875 343.09064Q329.28125 343.09064 329.75 343.29376Q330.23438 343.4969 330.46875 343.825Q330.70312 344.15314 330.79688 344.59064Q330.84375 344.8875 330.84375 345.6219L330.84375 349.45L329.79688 349.45L329.79688 345.66876Q329.79688 345.0125 329.67188 344.7Q329.54688 344.3875 329.23438 344.2Q328.92188 343.9969 328.5 343.9969Q327.82812 343.9969 327.32812 344.4344Q326.84375 344.85626 326.84375 346.04376L326.84375 349.45L325.79688 349.45ZM336.85938 347.16876L337.89062 347.3094Q337.71875 348.3719 337.01562 348.98126Q336.3125 349.59064 335.29688 349.59064Q334.01562 349.59064 333.23438 348.7625Q332.46875 347.91876 332.46875 346.35626Q332.46875 345.35626 332.79688 344.60626Q333.14062 343.84064 333.8125 343.46564Q334.5 343.09064 335.3125 343.09064Q336.3125 343.09064 336.95312 343.60626Q337.60938 344.10626 337.79688 345.0594L336.76562 345.21564Q336.625 344.59064 336.25 344.27814Q335.875 343.95 335.34375 343.95Q334.54688 343.95 334.04688 344.52814Q333.54688 345.09064 333.54688 346.325Q333.54688 347.59064 334.03125 348.15314Q334.51562 348.71564 335.28125 348.71564Q335.90625 348.71564 336.3125 348.34064Q336.73438 347.96564 336.85938 347.16876ZM343.04688 347.45L344.14062 347.575Q343.89062 348.52814 343.1875 349.0594Q342.48438 349.59064 341.40625 349.59064Q340.04688 349.59064 339.23438 348.7469Q338.4375 347.90314 338.4375 346.3875Q338.4375 344.825 339.25 343.96564Q340.0625 343.09064 341.34375 343.09064Q342.59375 343.09064 343.375 343.9344Q344.17188 344.77814 344.17188 346.325Q344.17188 346.41876 344.17188 346.60626L339.53125 346.60626Q339.59375 347.6375 340.10938 348.1844Q340.625 348.71564 341.40625 348.71564Q341.98438 348.71564 342.39062 348.41876Q342.8125 348.10626 343.04688 347.45ZM339.59375 345.7469L343.0625 345.7469Q343.0 344.95 342.67188 344.5594Q342.15625 343.95 341.35938 343.95Q340.625 343.95 340.125 344.4344Q339.64062 344.91876 339.59375 345.7469ZM347.8125 351.98126Q346.9375 350.8719 346.32812 349.40314Q345.73438 347.91876 345.73438 346.34064Q345.73438 344.95 346.17188 343.66876Q346.70312 342.1844 347.8125 340.71564L348.5625 340.71564Q347.85938 341.9344 347.625 342.45Q347.26562 343.2625 347.0625 344.1375Q346.8125 345.23126 346.8125 346.34064Q346.8125 349.16876 348.5625 351.98126L347.8125 351.98126ZM353.85938 347.16876L354.89062 347.3094Q354.71875 348.3719 354.01562 348.98126Q353.3125 349.59064 352.29688 349.59064Q351.01562 349.59064 350.23438 348.7625Q349.46875 347.91876 349.46875 346.35626Q349.46875 345.35626 349.79688 344.60626Q350.14062 343.84064 350.8125 343.46564Q351.5 343.09064 352.3125 343.09064Q353.3125 343.09064 353.95312 343.60626Q354.60938 344.10626 354.79688 345.0594L353.76562 345.21564Q353.625 344.59064 353.25 344.27814Q352.875 343.95 352.34375 343.95Q351.54688 343.95 351.04688 344.52814Q350.54688 345.09064 350.54688 346.325Q350.54688 347.59064 351.03125 348.15314Q351.51562 348.71564 352.28125 348.71564Q352.90625 348.71564 353.3125 348.34064Q353.73438 347.96564 353.85938 347.16876ZM355.79688 349.45L355.79688 343.23126L356.73438 343.23126L356.73438 344.10626Q357.03125 343.6375 357.51562 343.3719Q358.0 343.09064 358.625 343.09064Q359.3125 343.09064 359.75 343.3719Q360.20312 343.65314 360.375 344.16876Q361.125 343.09064 362.29688 343.09064Q363.23438 343.09064 363.71875 343.60626Q364.21875 344.10626 364.21875 345.1844L364.21875 349.45L363.17188 349.45L363.17188 345.52814Q363.17188 344.90314 363.0625 344.6219Q362.96875 344.34064 362.70312 344.16876Q362.4375 343.9969 362.0625 343.9969Q361.40625 343.9969 360.96875 344.4344Q360.54688 344.8719 360.54688 345.84064L360.54688 349.45L359.48438 349.45L359.48438 345.40314Q359.48438 344.7 359.21875 344.35626Q358.96875 343.9969 358.39062 343.9969Q357.9375 343.9969 357.5625 344.23126Q357.1875 344.46564 357.01562 344.91876Q356.84375 345.3719 356.84375 346.21564L356.84375 349.45L355.79688 349.45ZM367.48438 351.98126L366.73438 351.98126Q368.48438 349.16876 368.48438 346.34064Q368.48438 345.2469 368.23438 344.15314Q368.03125 343.27814 367.67188 342.46564Q367.4375 341.95 366.73438 340.71564L367.48438 340.71564Q368.57812 342.1844 369.10938 343.66876Q369.5625 344.95 369.5625 346.34064Q369.5625 347.91876 368.95312 349.40314Q368.34375 350.8719 367.48438 351.98126Z" fill-rule="nonzero"/><path fill="#000000" d="M29.550013 226.2573L21.971888 226.2573L21.971888 229.08542L20.956263 229.08542L20.956263 222.27292L21.971888 222.27292L21.971888 225.11667L29.550013 225.11667L29.550013 226.2573ZM22.175013 221.5698L20.956263 221.5698L20.956263 220.5073L22.175013 220.5073L22.175013 221.5698ZM29.550013 221.5698L23.331263 221.5698L23.331263 220.5073L29.550013 220.5073L29.550013 221.5698ZM29.550013 218.5698L23.331263 218.5698L23.331263 217.6323L24.206263 217.6323Q23.737513 217.33542 23.471888 216.85104Q23.190638 216.36667 23.190638 215.74167Q23.190638 215.05417 23.471888 214.61667Q23.753138 214.16354 24.268763 213.99167Q23.190638 213.24167 23.190638 212.0698Q23.190638 211.1323 23.706263 210.64792Q24.206263 210.14792 25.284388 210.14792L29.550013 210.14792L29.550013 211.1948L25.628138 211.1948Q25.003138 211.1948 24.721888 211.30417Q24.440638 211.39792 24.268763 211.66354Q24.096888 211.92917 24.096888 212.30417Q24.096888 212.96042 24.534388 213.39792Q24.971888 213.8198 25.940638 213.8198L29.550013 213.8198L29.550013 214.8823L25.503138 214.8823Q24.800013 214.8823 24.456263 215.14792Q24.096888 215.39792 24.096888 215.97604Q24.096888 216.42917 24.331263 216.80417Q24.565638 217.17917 25.018763 217.35104Q25.471888 217.52292 26.315638 217.52292L29.550013 217.52292L29.550013 218.5698ZM27.550013 203.3198L27.675013 202.22604Q28.628138 202.47604 29.159388 203.17917Q29.690638 203.8823 29.690638 204.96042Q29.690638 206.3198 28.846888 207.1323Q28.003138 207.92917 26.487513 207.92917Q24.925013 207.92917 24.065638 207.11667Q23.190638 206.30417 23.190638 205.02292Q23.190638 203.77292 24.034388 202.99167Q24.878138 202.1948 26.425013 202.1948Q26.518763 202.1948 26.706263 202.1948L26.706263 206.83542Q27.737513 206.77292 28.284388 206.2573Q28.815638 205.74167 28.815638 204.96042Q28.815638 204.3823 28.518763 203.97604Q28.206263 203.55417 27.550013 203.3198ZM25.846888 206.77292L25.846888 203.30417Q25.050013 203.36667 24.659388 203.6948Q24.050013 204.21042 24.050013 205.0073Q24.050013 205.74167 24.534388 206.24167Q25.018763 206.72604 25.846888 206.77292ZM32.08126 195.55417Q30.971888 196.42917 29.503138 197.03854Q28.018763 197.6323 26.440638 197.6323Q25.050013 197.6323 23.768763 197.1948Q22.284388 196.66354 20.815638 195.55417L20.815638 194.80417Q22.034388 195.5073 22.550013 195.74167Q23.362513 196.10104 24.237513 196.30417Q25.331263 196.55417 26.440638 196.55417Q29.268763 196.55417 32.08126 194.80417L32.08126 195.55417ZM29.550013 193.5698L23.331263 193.5698L23.331263 192.6323L24.206263 192.6323Q23.737513 192.33542 23.471888 191.85104Q23.190638 191.36667 23.190638 190.74167Q23.190638 190.05417 23.471888 189.61667Q23.753138 189.16354 24.268763 188.99167Q23.190638 188.24167 23.190638 187.0698Q23.190638 186.1323 23.706263 185.64792Q24.206263 185.14792 25.284388 185.14792L29.550013 185.14792L29.550013 186.1948L25.628138 186.1948Q25.003138 186.1948 24.721888 186.30417Q24.440638 186.39792 24.268763 186.66354Q24.096888 186.92917 24.096888 187.30417Q24.096888 187.96042 24.534388 188.39792Q24.971888 188.8198 25.940638 188.8198L29.550013 188.8198L29.550013 189.8823L25.503138 189.8823Q24.800013 189.8823 24.456263 190.14792Q24.096888 190.39792 24.096888 190.97604Q24.096888 191.42917 24.331263 191.80417Q24.565638 192.17917 25.018763 192.35104Q25.471888 192.52292 26.315638 192.52292L29.550013 192.52292L29.550013 193.5698ZM27.690638 182.99167L27.534388 181.96042Q28.159388 181.86667 28.487513 181.47604Q28.815638 181.0698 28.815638 180.33542Q28.815638 179.61667 28.534388 179.27292Q28.237513 178.91354 27.831263 178.91354Q27.471888 178.91354 27.268763 179.22604Q27.128138 179.4448 26.909388 180.30417Q26.612513 181.46042 26.409388 181.91354Q26.190638 182.35104 25.815638 182.58542Q25.440638 182.8198 24.971888 182.8198Q24.565638 182.8198 24.206263 182.6323Q23.846888 182.4448 23.612513 182.11667Q23.440638 181.86667 23.315638 181.4448Q23.190638 181.02292 23.190638 180.52292Q23.190638 179.80417 23.409388 179.2573Q23.612513 178.6948 23.971888 178.42917Q24.331263 178.16354 24.925013 178.0698L25.065638 179.10104Q24.596888 179.16354 24.331263 179.5073Q24.050013 179.83542 24.050013 180.46042Q24.050013 181.17917 24.300013 181.49167Q24.534388 181.80417 24.862513 181.80417Q25.065638 181.80417 25.221888 181.67917Q25.393763 181.53854 25.503138 181.27292Q25.565638 181.11667 25.768763 180.33542Q26.081263 179.21042 26.268763 178.77292Q26.456263 178.33542 26.815638 178.08542Q27.175013 177.83542 27.721888 177.83542Q28.253138 177.83542 28.721888 178.14792Q29.175013 178.4448 29.440638 179.02292Q29.690638 179.60104 29.690638 180.33542Q29.690638 181.55417 29.190638 182.1948Q28.675013 182.8198 27.690638 182.99167ZM32.08126 174.8823L32.08126 175.6323Q29.268763 173.8823 26.440638 173.8823Q25.346888 173.8823 24.253138 174.1323Q23.378138 174.33542 22.565638 174.6948Q22.050013 174.92917 20.815638 175.6323L20.815638 174.8823Q22.284388 173.78854 23.768763 173.2573Q25.050013 172.80417 26.440638 172.80417Q28.018763 172.80417 29.503138 173.41354Q30.971888 174.02292 32.08126 174.8823Z" fill-rule="nonzero"/><path fill="#000000" d="M72.05 300.21564Q72.05 298.6844 72.3625 297.7625Q72.675 296.825 73.28438 296.325Q73.90938 295.825 74.84688 295.825Q75.53438 295.825 76.05 296.10626Q76.58125 296.3875 76.925 296.91876Q77.26875 297.4344 77.45625 298.1844Q77.64375 298.9344 77.64375 300.21564Q77.64375 301.73126 77.33125 302.65314Q77.03438 303.575 76.40938 304.09064Q75.8 304.59064 74.84688 304.59064Q73.6125 304.59064 72.89375 303.7Q72.05 302.6375 72.05 300.21564ZM73.12813 300.21564Q73.12813 302.325 73.62813 303.02814Q74.12813 303.73126 74.84688 303.73126Q75.58125 303.73126 76.06563 303.02814Q76.56563 302.325 76.56563 300.21564Q76.56563 298.09064 76.06563 297.40314Q75.58125 296.7 74.83125 296.7Q74.1125 296.7 73.675 297.3094Q73.12813 298.09064 73.12813 300.21564Z" fill-rule="nonzero"/><path fill="#000000" d="M55.01875 233.72778L53.971874 233.72778L53.971874 227.00903Q53.58125 227.36841 52.95625 227.74341Q52.346874 228.10278 51.8625 228.27466L51.8625 227.25903Q52.7375 226.83716 53.39375 226.25903Q54.065624 225.66528 54.346874 225.10278L55.01875 225.10278L55.01875 233.72778ZM58.05 229.49341Q58.05 227.96216 58.3625 227.04028Q58.675 226.10278 59.284374 225.60278Q59.909374 225.10278 60.846874 225.10278Q61.534374 225.10278 62.05 225.38403Q62.58125 225.66528 62.925 226.19653Q63.26875 226.71216 63.45625 227.46216Q63.64375 228.21216 63.64375 229.49341Q63.64375 231.00903 63.33125 231.93091Q63.034374 232.85278 62.409374 233.36841Q61.8 233.86841 60.846874 233.86841Q59.6125 233.86841 58.89375 232.97778Q58.05 231.91528 58.05 229.49341ZM59.128124 229.49341Q59.128124 231.60278 59.628124 232.30591Q60.128124 233.00903 60.846874 233.00903Q61.58125 233.00903 62.065624 232.30591Q62.565624 231.60278 62.565624 229.49341Q62.565624 227.36841 62.065624 226.68091Q61.58125 225.97778 60.83125 225.97778Q60.1125 225.97778 59.675 226.58716Q59.128124 227.36841 59.128124 229.49341ZM65.05 229.49341Q65.05 227.96216 65.3625 227.04028Q65.675 226.10278 66.28438 225.60278Q66.90938 225.10278 67.84688 225.10278Q68.53438 225.10278 69.05 225.38403Q69.58125 225.66528 69.925 226.19653Q70.26875 226.71216 70.45625 227.46216Q70.64375 228.21216 70.64375 229.49341Q70.64375 231.00903 70.33125 231.93091Q70.03438 232.85278 69.40938 233.36841Q68.8 233.86841 67.84688 233.86841Q66.6125 233.86841 65.89375 232.97778Q65.05 231.91528 65.05 229.49341ZM66.12813 229.49341Q66.12813 231.60278 66.62813 232.30591Q67.12813 233.00903 67.84688 233.00903Q68.58125 233.00903 69.06563 232.30591Q69.56563 231.60278 69.56563 229.49341Q69.56563 227.36841 69.06563 226.68091Q68.58125 225.97778 67.83125 225.97778Q67.1125 225.97778 66.675 226.58716Q66.12813 227.36841 66.12813 229.49341ZM72.05 229.49341Q72.05 227.96216 72.3625 227.04028Q72.675 226.10278 73.28438 225.60278Q73.90938 225.10278 74.84688 225.10278Q75.53438 225.10278 76.05 225.38403Q76.58125 225.66528 76.925 226.19653Q77.26875 226.71216 77.45625 227.46216Q77.64375 228.21216 77.64375 229.49341Q77.64375 231.00903 77.33125 231.93091Q77.03438 232.85278 76.40938 233.36841Q75.8 233.86841 74.84688 233.86841Q73.6125 233.86841 72.89375 232.97778Q72.05 231.91528 72.05 229.49341ZM73.12813 229.49341Q73.12813 231.60278 73.62813 232.30591Q74.12813 233.00903 74.84688 233.00903Q75.58125 233.00903 76.06563 232.30591Q76.56563 231.60278 76.56563 229.49341Q76.56563 227.36841 76.06563 226.68091Q75.58125 225.97778 74.83125 225.97778Q74.1125 225.97778 73.675 226.58716Q73.12813 227.36841 73.12813 229.49341Z" fill-rule="nonzero"/><path fill="#000000" d="M56.596874 161.98993L56.596874 163.00555L50.909374 163.00555Q50.909374 162.63055 51.034374 162.27118Q51.253124 161.69305 51.721874 161.13055Q52.20625 160.56805 53.1125 159.83368Q54.51875 158.67743 55.003124 158.00555Q55.503124 157.33368 55.503124 156.73993Q55.503124 156.11493 55.05 155.69305Q54.596874 155.25555 53.878124 155.25555Q53.1125 155.25555 52.659374 155.70868Q52.20625 156.1618 52.190624 156.9743L51.1125 156.86493Q51.221874 155.64618 51.940624 155.02118Q52.675 154.38055 53.909374 154.38055Q55.14375 154.38055 55.8625 155.06805Q56.58125 155.75555 56.58125 156.77118Q56.58125 157.2868 56.3625 157.7868Q56.159374 158.27118 55.659374 158.83368Q55.175 159.38055 54.05 160.33368Q53.096874 161.13055 52.815624 161.42743Q52.55 161.70868 52.378124 161.98993L56.596874 161.98993ZM58.05 158.77118Q58.05 157.23993 58.3625 156.31805Q58.675 155.38055 59.284374 154.88055Q59.909374 154.38055 60.846874 154.38055Q61.534374 154.38055 62.05 154.6618Q62.58125 154.94305 62.925 155.4743Q63.26875 155.98993 63.45625 156.73993Q63.64375 157.48993 63.64375 158.77118Q63.64375 160.2868 63.33125 161.20868Q63.034374 162.13055 62.409374 162.64618Q61.8 163.14618 60.846874 163.14618Q59.6125 163.14618 58.89375 162.25555Q58.05 161.19305 58.05 158.77118ZM59.128124 158.77118Q59.128124 160.88055 59.628124 161.58368Q60.128124 162.2868 60.846874 162.2868Q61.58125 162.2868 62.065624 161.58368Q62.565624 160.88055 62.565624 158.77118Q62.565624 156.64618 62.065624 155.95868Q61.58125 155.25555 60.83125 155.25555Q60.1125 155.25555 59.675 155.86493Q59.128124 156.64618 59.128124 158.77118ZM65.05 158.77118Q65.05 157.23993 65.3625 156.31805Q65.675 155.38055 66.28438 154.88055Q66.90938 154.38055 67.84688 154.38055Q68.53438 154.38055 69.05 154.6618Q69.58125 154.94305 69.925 155.4743Q70.26875 155.98993 70.45625 156.73993Q70.64375 157.48993 70.64375 158.77118Q70.64375 160.2868 70.33125 161.20868Q70.03438 162.13055 69.40938 162.64618Q68.8 163.14618 67.84688 163.14618Q66.6125 163.14618 65.89375 162.25555Q65.05 161.19305 65.05 158.77118ZM66.12813 158.77118Q66.12813 160.88055 66.62813 161.58368Q67.12813 162.2868 67.84688 162.2868Q68.58125 162.2868 69.06563 161.58368Q69.56563 160.88055 69.56563 158.77118Q69.56563 156.64618 69.06563 155.95868Q68.58125 155.25555 67.83125 155.25555Q67.1125 155.25555 66.675 155.86493Q66.12813 156.64618 66.12813 158.77118ZM72.05 158.77118Q72.05 157.23993 72.3625 156.31805Q72.675 155.38055 73.28438 154.88055Q73.90938 154.38055 74.84688 154.38055Q75.53438 154.38055 76.05 154.6618Q76.58125 154.94305 76.925 155.4743Q77.26875 155.98993 77.45625 156.73993Q77.64375 157.48993 77.64375 158.77118Q77.64375 160.2868 77.33125 161.20868Q77.03438 162.13055 76.40938 162.64618Q75.8 163.14618 74.84688 163.14618Q73.6125 163.14618 72.89375 162.25555Q72.05 161.19305 72.05 158.77118ZM73.12813 158.77118Q73.12813 160.88055 73.62813 161.58368Q74.12813 162.2868 74.84688 162.2868Q75.58125 162.2868 76.06563 161.58368Q76.56563 160.88055 76.56563 158.77118Q76.56563 156.64618 76.06563 155.95868Q75.58125 155.25555 74.83125 155.25555Q74.1125 155.25555 73.675 155.86493Q73.12813 156.64618 73.12813 158.77118Z" fill-rule="nonzero"/><path fill="#000000" d="M51.05 90.01771L52.1125 89.87708Q52.284374 90.76771 52.721874 91.17396Q53.159374 91.56458 53.784374 91.56458Q54.534374 91.56458 55.05 91.04896Q55.565624 90.53333 55.565624 89.76771Q55.565624 89.04896 55.08125 88.58021Q54.6125 88.09583 53.878124 88.09583Q53.58125 88.09583 53.128124 88.22083L53.253124 87.28333Q53.3625 87.29896 53.425 87.29896Q54.096874 87.29896 54.628124 86.95521Q55.175 86.59583 55.175 85.86146Q55.175 85.28333 54.784374 84.90833Q54.39375 84.51771 53.76875 84.51771Q53.159374 84.51771 52.7375 84.90833Q52.33125 85.29896 52.221874 86.06458L51.159374 85.87708Q51.346874 84.83021 52.034374 84.25208Q52.721874 83.65833 53.7375 83.65833Q54.440624 83.65833 55.034374 83.97083Q55.628124 84.26771 55.940624 84.78333Q56.253124 85.29896 56.253124 85.89271Q56.253124 86.43958 55.95625 86.90833Q55.659374 87.36146 55.08125 87.62708Q55.83125 87.79896 56.253124 88.36146Q56.675 88.90833 56.675 89.75208Q56.675 90.87708 55.846874 91.65833Q55.034374 92.43958 53.784374 92.43958Q52.659374 92.43958 51.909374 91.76771Q51.159374 91.08021 51.05 90.01771ZM58.05 88.04896Q58.05 86.51771 58.3625 85.59583Q58.675 84.65833 59.284374 84.15833Q59.909374 83.65833 60.846874 83.65833Q61.534374 83.65833 62.05 83.93958Q62.58125 84.22083 62.925 84.75208Q63.26875 85.26771 63.45625 86.01771Q63.64375 86.76771 63.64375 88.04896Q63.64375 89.56458 63.33125 90.48646Q63.034374 91.40833 62.409374 91.92396Q61.8 92.42396 60.846874 92.42396Q59.6125 92.42396 58.89375 91.53333Q58.05 90.47083 58.05 88.04896ZM59.128124 88.04896Q59.128124 90.15833 59.628124 90.86146Q60.128124 91.56458 60.846874 91.56458Q61.58125 91.56458 62.065624 90.86146Q62.565624 90.15833 62.565624 88.04896Q62.565624 85.92396 62.065624 85.23646Q61.58125 84.53333 60.83125 84.53333Q60.1125 84.53333 59.675 85.14271Q59.128124 85.92396 59.128124 88.04896ZM65.05 88.04896Q65.05 86.51771 65.3625 85.59583Q65.675 84.65833 66.28438 84.15833Q66.90938 83.65833 67.84688 83.65833Q68.53438 83.65833 69.05 83.93958Q69.58125 84.22083 69.925 84.75208Q70.26875 85.26771 70.45625 86.01771Q70.64375 86.76771 70.64375 88.04896Q70.64375 89.56458 70.33125 90.48646Q70.03438 91.40833 69.40938 91.92396Q68.8 92.42396 67.84688 92.42396Q66.6125 92.42396 65.89375 91.53333Q65.05 90.47083 65.05 88.04896ZM66.12813 88.04896Q66.12813 90.15833 66.62813 90.86146Q67.12813 91.56458 67.84688 91.56458Q68.58125 91.56458 69.06563 90.86146Q69.56563 90.15833 69.56563 88.04896Q69.56563 85.92396 69.06563 85.23646Q68.58125 84.53333 67.83125 84.53333Q67.1125 84.53333 66.675 85.14271Q66.12813 85.92396 66.12813 88.04896ZM72.05 88.04896Q72.05 86.51771 72.3625 85.59583Q72.675 84.65833 73.28438 84.15833Q73.90938 83.65833 74.84688 83.65833Q75.53438 83.65833 76.05 83.93958Q76.58125 84.22083 76.925 84.75208Q77.26875 85.26771 77.45625 86.01771Q77.64375 86.76771 77.64375 88.04896Q77.64375 89.56458 77.33125 90.48646Q77.03438 91.40833 76.40938 91.92396Q75.8 92.42396 74.84688 92.42396Q73.6125 92.42396 72.89375 91.53333Q72.05 90.47083 72.05 88.04896ZM73.12813 88.04896Q73.12813 90.15833 73.62813 90.86146Q74.12813 91.56458 74.84688 91.56458Q75.58125 91.56458 76.06563 90.86146Q76.56563 90.15833 76.56563 88.04896Q76.56563 85.92396 76.06563 85.23646Q75.58125 84.53333 74.83125 84.53333Q74.1125 84.53333 73.675 85.14271Q73.12813 85.92396 73.12813 88.04896Z" fill-rule="nonzero"/><path fill="#000000" d="M88.358185 313.21564Q88.358185 311.6844 88.670685 310.7625Q88.983185 309.825 89.59256 309.325Q90.21756 308.825 91.15506 308.825Q91.84256 308.825 92.358185 309.10626Q92.889435 309.3875 93.233185 309.91876Q93.576935 310.4344 93.764435 311.1844Q93.951935 311.9344 93.951935 313.21564Q93.951935 314.73126 93.639435 315.65314Q93.34256 316.575 92.71756 317.09064Q92.108185 317.59064 91.15506 317.59064Q89.920685 317.59064 89.201935 316.7Q88.358185 315.6375 88.358185 313.21564ZM89.43631 313.21564Q89.43631 315.325 89.93631 316.02814Q90.43631 316.73126 91.15506 316.73126Q91.889435 316.73126 92.37381 316.02814Q92.87381 315.325 92.87381 313.21564Q92.87381 311.09064 92.37381 310.40314Q91.889435 309.7 91.139435 309.7Q90.420685 309.7 89.983185 310.3094Q89.43631 311.09064 89.43631 313.21564Z" fill-rule="nonzero"/><path fill="#000000" d="M196.62125 316.4344L196.62125 317.45L190.93375 317.45Q190.93375 317.075 191.05875 316.71564Q191.2775 316.1375 191.74625 315.575Q192.23062 315.0125 193.13687 314.27814Q194.54312 313.1219 195.0275 312.45Q195.5275 311.77814 195.5275 311.1844Q195.5275 310.5594 195.07437 310.1375Q194.62125 309.7 193.9025 309.7Q193.13687 309.7 192.68375 310.15314Q192.23062 310.60626 192.215 311.41876L191.13687 311.3094Q191.24625 310.09064 191.965 309.46564Q192.69937 308.825 193.93375 308.825Q195.16812 308.825 195.88687 309.5125Q196.60562 310.2 196.60562 311.21564Q196.60562 311.73126 196.38687 312.23126Q196.18375 312.71564 195.68375 313.27814Q195.19937 313.825 194.07437 314.77814Q193.12125 315.575 192.84 315.8719Q192.57437 316.15314 192.4025 316.4344L196.62125 316.4344ZM198.07437 313.21564Q198.07437 311.6844 198.38687 310.7625Q198.69937 309.825 199.30875 309.325Q199.93375 308.825 200.87125 308.825Q201.55875 308.825 202.07437 309.10626Q202.60562 309.3875 202.94937 309.91876Q203.29312 310.4344 203.48062 311.1844Q203.66812 311.9344 203.66812 313.21564Q203.66812 314.73126 203.35562 315.65314Q203.05875 316.575 202.43375 317.09064Q201.82437 317.59064 200.87125 317.59064Q199.63687 317.59064 198.91812 316.7Q198.07437 315.6375 198.07437 313.21564ZM199.1525 313.21564Q199.1525 315.325 199.6525 316.02814Q200.1525 316.73126 200.87125 316.73126Q201.60562 316.73126 202.09 316.02814Q202.59 315.325 202.59 313.21564Q202.59 311.09064 202.09 310.40314Q201.60562 309.7 200.85562 309.7Q200.13687 309.7 199.69937 310.3094Q199.1525 311.09064 199.1525 313.21564Z" fill-rule="nonzero"/><path fill="#000000" d="M300.66556 317.45L300.66556 315.3875L296.9468 315.3875L296.9468 314.41876L300.86868 308.85626L301.72806 308.85626L301.72806 314.41876L302.8843 314.41876L302.8843 315.3875L301.72806 315.3875L301.72806 317.45L300.66556 317.45ZM300.66556 314.41876L300.66556 310.5594L297.97806 314.41876L300.66556 314.41876ZM304.29056 313.21564Q304.29056 311.6844 304.60306 310.7625Q304.91556 309.825 305.52493 309.325Q306.14993 308.825 307.08743 308.825Q307.77493 308.825 308.29056 309.10626Q308.8218 309.3875 309.16556 309.91876Q309.5093 310.4344 309.6968 311.1844Q309.8843 311.9344 309.8843 313.21564Q309.8843 314.73126 309.5718 315.65314Q309.27493 316.575 308.64993 317.09064Q308.04056 317.59064 307.08743 317.59064Q305.85306 317.59064 305.1343 316.7Q304.29056 315.6375 304.29056 313.21564ZM305.36868 313.21564Q305.36868 315.325 305.86868 316.02814Q306.36868 316.73126 307.08743 316.73126Q307.8218 316.73126 308.30618 316.02814Q308.80618 315.325 308.80618 313.21564Q308.80618 311.09064 308.30618 310.40314Q307.8218 309.7 307.0718 309.7Q306.35306 309.7 305.91556 310.3094Q305.36868 311.09064 305.36868 313.21564Z" fill-rule="nonzero"/><path fill="#000000" d="M408.9755 310.96564L407.92862 311.04376Q407.788 310.41876 407.538 310.1375Q407.1005 309.6844 406.4755 309.6844Q405.9755 309.6844 405.58487 309.96564Q405.1005 310.34064 404.80362 311.04376Q404.52237 311.73126 404.50674 313.0125Q404.88174 312.4344 405.42862 312.15314Q405.99112 311.8719 406.6005 311.8719Q407.64737 311.8719 408.38174 312.65314Q409.13174 313.4344 409.13174 314.65314Q409.13174 315.46564 408.77237 316.16876Q408.42862 316.85626 407.81924 317.23126Q407.20987 317.59064 406.44424 317.59064Q405.11612 317.59064 404.288 316.6219Q403.45987 315.65314 403.45987 313.4344Q403.45987 310.9344 404.38174 309.8094Q405.17862 308.825 406.538 308.825Q407.55362 308.825 408.19424 309.40314Q408.8505 309.96564 408.9755 310.96564ZM404.67862 314.66876Q404.67862 315.21564 404.89737 315.71564Q405.13174 316.2 405.538 316.46564Q405.95987 316.73126 406.42862 316.73126Q407.08487 316.73126 407.56924 316.2Q408.05362 315.65314 408.05362 314.73126Q408.05362 313.84064 407.56924 313.325Q407.1005 312.8094 406.38174 312.8094Q405.663 312.8094 405.163 313.325Q404.67862 313.84064 404.67862 314.66876ZM410.50674 313.21564Q410.50674 311.6844 410.81924 310.7625Q411.13174 309.825 411.74112 309.325Q412.36612 308.825 413.30362 308.825Q413.99112 308.825 414.50674 309.10626Q415.038 309.3875 415.38174 309.91876Q415.7255 310.4344 415.913 311.1844Q416.1005 311.9344 416.1005 313.21564Q416.1005 314.73126 415.788 315.65314Q415.49112 316.575 414.86612 317.09064Q414.25674 317.59064 413.30362 317.59064Q412.06924 317.59064 411.3505 316.7Q410.50674 315.6375 410.50674 313.21564ZM411.58487 313.21564Q411.58487 315.325 412.08487 316.02814Q412.58487 316.73126 413.30362 316.73126Q414.038 316.73126 414.52237 316.02814Q415.02237 315.325 415.02237 313.21564Q415.02237 311.09064 414.52237 310.40314Q414.038 309.7 413.288 309.7Q412.56924 309.7 412.13174 310.3094Q411.58487 311.09064 411.58487 313.21564Z" fill-rule="nonzero"/><path fill="#000000" d="M511.34793 312.79376Q510.69168 312.54376 510.36356 312.10626Q510.05106 311.65314 510.05106 311.04376Q510.05106 310.10626 510.72293 309.46564Q511.41043 308.825 512.5198 308.825Q513.6448 308.825 514.3323 309.48126Q515.0198 310.1375 515.0198 311.075Q515.0198 311.66876 514.7073 312.10626Q514.3948 312.54376 513.75415 312.79376Q514.551 313.04376 514.9573 313.6219Q515.3635 314.2 515.3635 314.9969Q515.3635 316.09064 514.5823 316.84064Q513.81665 317.59064 512.5354 317.59064Q511.2698 317.59064 510.48856 316.84064Q509.7073 316.09064 509.7073 314.96564Q509.7073 314.1219 510.12918 313.5594Q510.56668 312.9969 511.34793 312.79376ZM511.12918 310.9969Q511.12918 311.60626 511.5198 311.9969Q511.92606 312.3875 512.551 312.3875Q513.1604 312.3875 513.551 312.0125Q513.94165 311.6219 513.94165 311.0594Q513.94165 310.48126 513.5354 310.09064Q513.12915 309.6844 512.5354 309.6844Q511.92606 309.6844 511.5198 310.075Q511.12918 310.46564 511.12918 310.9969ZM510.80106 314.96564Q510.80106 315.41876 511.00418 315.84064Q511.22293 316.2625 511.6448 316.4969Q512.06665 316.73126 512.551 316.73126Q513.301 316.73126 513.7854 316.2469Q514.2854 315.7625 514.2854 315.0125Q514.2854 314.2469 513.7854 313.7469Q513.2854 313.2469 512.5198 313.2469Q511.7698 313.2469 511.28543 313.7469Q510.80106 314.23126 510.80106 314.96564ZM516.7229 313.21564Q516.7229 311.6844 517.0354 310.7625Q517.3479 309.825 517.9573 309.325Q518.5823 308.825 519.5198 308.825Q520.2073 308.825 520.7229 309.10626Q521.25415 309.3875 521.5979 309.91876Q521.94165 310.4344 522.12915 311.1844Q522.31665 311.9344 522.31665 313.21564Q522.31665 314.73126 522.00415 315.65314Q521.7073 316.575 521.0823 317.09064Q520.4729 317.59064 519.5198 317.59064Q518.2854 317.59064 517.56665 316.7Q516.7229 315.6375 516.7229 313.21564ZM517.801 313.21564Q517.801 315.325 518.301 316.02814Q518.801 316.73126 519.5198 316.73126Q520.25415 316.73126 520.7385 316.02814Q521.2385 315.325 521.2385 313.21564Q521.2385 311.09064 520.7385 310.40314Q520.25415 309.7 519.50415 309.7Q518.7854 309.7 518.3479 310.3094Q517.801 311.09064 517.801 313.21564Z" fill-rule="nonzero"/><path fill="#4285f4" d="M222.0 61.916668C222.0 65.23038 219.3137 67.916664 216.0 67.916664C212.6863 67.916664 210.0 65.23038 210.0 61.916668C210.0 58.60296 212.6863 55.916668 216.0 55.916668C219.3137 55.916668 222.0 58.60296 222.0 61.916668Z" fill-rule="nonzero"/><path fill="#1a1a1a" d="M233.09375 64.979164L233.25 65.90104Q232.79688 65.99479 232.45312 65.99479Q231.875 65.99479 231.5625 65.822914Q231.25 65.635414 231.10938 65.33854Q230.98438 65.041664 230.98438 64.08854L230.98438 60.510414L230.21875 60.510414L230.21875 59.697914L230.98438 59.697914L230.98438 58.15104L232.03125 57.52604L232.03125 59.697914L233.09375 59.697914L233.09375 60.510414L232.03125 60.510414L232.03125 64.15104Q232.03125 64.604164 232.07812 64.729164Q232.14062 64.854164 232.26562 64.93229Q232.39062 65.010414 232.625 65.010414Q232.8125 65.010414 233.09375 64.979164ZM233.79688 58.541664L233.79688 57.322914L234.85938 57.322914L234.85938 58.541664L233.79688 58.541664ZM233.79688 65.916664L233.79688 59.697914L234.85938 59.697914L234.85938 65.916664L233.79688 65.916664ZM236.79688 65.916664L236.79688 59.697914L237.73438 59.697914L237.73438 60.572914Q238.03125 60.104164 238.51562 59.83854Q239.0 59.55729 239.625 59.55729Q240.3125 59.55729 240.75 59.83854Q241.20312 60.11979 241.375 60.635414Q242.125 59.55729 243.29688 59.55729Q244.23438 59.55729 244.71875 60.072914Q245.21875 60.572914 245.21875 61.65104L245.21875 65.916664L244.17188 65.916664L244.17188 61.99479Q244.17188 61.36979 244.0625 61.08854Q243.96875 60.80729 243.70312 60.635414Q243.4375 60.46354 243.0625 60.46354Q242.40625 60.46354 241.96875 60.90104Q241.54688 61.33854 241.54688 62.30729L241.54688 65.916664L240.48438 65.916664L240.48438 61.86979Q240.48438 61.166664 240.21875 60.822914Q239.96875 60.46354 239.39062 60.46354Q238.9375 60.46354 238.5625 60.697914Q238.1875 60.93229 238.01562 61.385414Q237.84375 61.83854 237.84375 62.68229L237.84375 65.916664L236.79688 65.916664ZM252.04688 63.916664L253.14062 64.041664Q252.89062 64.99479 252.1875 65.52604Q251.48438 66.05729 250.40625 66.05729Q249.04688 66.05729 248.23438 65.21354Q247.4375 64.36979 247.4375 62.854164Q247.4375 61.291664 248.25 60.43229Q249.0625 59.55729 250.34375 59.55729Q251.59375 59.55729 252.375 60.40104Q253.17188 61.24479 253.17188 62.791664Q253.17188 62.885414 253.17188 63.072914L248.53125 63.072914Q248.59375 64.104164 249.10938 64.65104Q249.625 65.18229 250.40625 65.18229Q250.98438 65.18229 251.39062 64.885414Q251.8125 64.572914 252.04688 63.916664ZM248.59375 62.21354L252.0625 62.21354Q252.0 61.416664 251.67188 61.02604Q251.15625 60.416664 250.35938 60.416664Q249.625 60.416664 249.125 60.90104Q248.64062 61.385414 248.59375 62.21354ZM259.8125 68.447914Q258.9375 67.33854 258.32812 65.86979Q257.73438 64.385414 257.73438 62.80729Q257.73438 61.416664 258.17188 60.135414Q258.70312 58.65104 259.8125 57.18229L260.5625 57.18229Q259.85938 58.40104 259.625 58.916664Q259.26562 59.729164 259.0625 60.604164Q258.8125 61.697914 258.8125 62.80729Q258.8125 65.635414 260.5625 68.447914L259.8125 68.447914ZM261.79688 65.916664L261.79688 59.697914L262.73438 59.697914L262.73438 60.572914Q263.03125 60.104164 263.51562 59.83854Q264.0 59.55729 264.625 59.55729Q265.3125 59.55729 265.75 59.83854Q266.20312 60.11979 266.375 60.635414Q267.125 59.55729 268.29688 59.55729Q269.23438 59.55729 269.71875 60.072914Q270.21875 60.572914 270.21875 61.65104L270.21875 65.916664L269.17188 65.916664L269.17188 61.99479Q269.17188 61.36979 269.0625 61.08854Q268.96875 60.80729 268.70312 60.635414Q268.4375 60.46354 268.0625 60.46354Q267.40625 60.46354 266.96875 60.90104Q266.54688 61.33854 266.54688 62.30729L266.54688 65.916664L265.48438 65.916664L265.48438 61.86979Q265.48438 61.166664 265.21875 60.822914Q264.96875 60.46354 264.39062 60.46354Q263.9375 60.46354 263.5625 60.697914Q263.1875 60.93229 263.01562 61.385414Q262.84375 61.83854 262.84375 62.68229L262.84375 65.916664L261.79688 65.916664ZM272.375 64.05729L273.40625 63.90104Q273.5 64.52604 273.89062 64.854164Q274.29688 65.18229 275.03125 65.18229Q275.75 65.18229 276.09375 64.90104Q276.45312 64.604164 276.45312 64.197914Q276.45312 63.83854 276.14062 63.635414Q275.92188 63.49479 275.0625 63.27604Q273.90625 62.979164 273.45312 62.77604Q273.01562 62.55729 272.78125 62.18229Q272.54688 61.80729 272.54688 61.33854Q272.54688 60.93229 272.73438 60.572914Q272.92188 60.21354 273.25 59.979164Q273.5 59.80729 273.92188 59.68229Q274.34375 59.55729 274.84375 59.55729Q275.5625 59.55729 276.10938 59.77604Q276.67188 59.979164 276.9375 60.33854Q277.20312 60.697914 277.29688 61.291664L276.26562 61.43229Q276.20312 60.96354 275.85938 60.697914Q275.53125 60.416664 274.90625 60.416664Q274.1875 60.416664 273.875 60.666664Q273.5625 60.90104 273.5625 61.229164Q273.5625 61.43229 273.6875 61.58854Q273.82812 61.760414 274.09375 61.86979Q274.25 61.93229 275.03125 62.135414Q276.15625 62.447914 276.59375 62.635414Q277.03125 62.822914 277.28125 63.18229Q277.53125 63.541664 277.53125 64.08854Q277.53125 64.61979 277.21875 65.08854Q276.92188 65.541664 276.34375 65.80729Q275.76562 66.05729 275.03125 66.05729Q273.8125 66.05729 273.17188 65.55729Q272.54688 65.041664 272.375 64.05729ZM280.48438 68.447914L279.73438 68.447914Q281.48438 65.635414 281.48438 62.80729Q281.48438 61.71354 281.23438 60.61979Q281.03125 59.74479 280.67188 58.93229Q280.4375 58.416664 279.73438 57.18229L280.48438 57.18229Q281.57812 58.65104 282.10938 60.135414Q282.5625 61.416664 282.5625 62.80729Q282.5625 64.385414 281.95312 65.86979Q281.34375 67.33854 280.48438 68.447914Z" fill-rule="nonzero"/><path stroke="#4285f4" stroke-width="4.0" stroke-linecap="butt" stroke-opacity="0.4" d="M299.0 61.916668L311.0 61.916668" fill-rule="nonzero"/><path fill="#1a1a1a" d="M319.5 63.65104L320.5625 63.510414Q320.73438 64.40104 321.17188 64.80729Q321.60938 65.197914 322.23438 65.197914Q322.98438 65.197914 323.5 64.68229Q324.01562 64.166664 324.01562 63.40104Q324.01562 62.68229 323.53125 62.21354Q323.0625 61.729164 322.32812 61.729164Q322.03125 61.729164 321.57812 61.854164L321.70312 60.916664Q321.8125 60.93229 321.875 60.93229Q322.54688 60.93229 323.07812 60.58854Q323.625 60.229164 323.625 59.49479Q323.625 58.916664 323.23438 58.541664Q322.84375 58.15104 322.21875 58.15104Q321.60938 58.15104 321.1875 58.541664Q320.78125 58.93229 320.67188 59.697914L319.60938 59.510414Q319.79688 58.46354 320.48438 57.885414Q321.17188 57.291664 322.1875 57.291664Q322.89062 57.291664 323.48438 57.604164Q324.07812 57.90104 324.39062 58.416664Q324.70312 58.93229 324.70312 59.52604Q324.70312 60.072914 324.40625 60.541664Q324.10938 60.99479 323.53125 61.260414Q324.28125 61.43229 324.70312 61.99479Q325.125 62.541664 325.125 63.385414Q325.125 64.510414 324.29688 65.291664Q323.48438 66.072914 322.23438 66.072914Q321.10938 66.072914 320.35938 65.40104Q319.60938 64.71354 319.5 63.65104ZM326.5 63.65104L327.5625 63.510414Q327.73438 64.40104 328.17188 64.80729Q328.60938 65.197914 329.23438 65.197914Q329.98438 65.197914 330.5 64.68229Q331.01562 64.166664 331.01562 63.40104Q331.01562 62.68229 330.53125 62.21354Q330.0625 61.729164 329.32812 61.729164Q329.03125 61.729164 328.57812 61.854164L328.70312 60.916664Q328.8125 60.93229 328.875 60.93229Q329.54688 60.93229 330.07812 60.58854Q330.625 60.229164 330.625 59.49479Q330.625 58.916664 330.23438 58.541664Q329.84375 58.15104 329.21875 58.15104Q328.60938 58.15104 328.1875 58.541664Q327.78125 58.93229 327.67188 59.697914L326.60938 59.510414Q326.79688 58.46354 327.48438 57.885414Q328.17188 57.291664 329.1875 57.291664Q329.89062 57.291664 330.48438 57.604164Q331.07812 57.90104 331.39062 58.416664Q331.70312 58.93229 331.70312 59.52604Q331.70312 60.072914 331.40625 60.541664Q331.10938 60.99479 330.53125 61.260414Q331.28125 61.43229 331.70312 61.99479Q332.125 62.541664 332.125 63.385414Q332.125 64.510414 331.29688 65.291664Q330.48438 66.072914 329.23438 66.072914Q328.10938 66.072914 327.35938 65.40104Q326.60938 64.71354 326.5 63.65104ZM334.09375 65.916664L334.09375 64.71354L335.29688 64.71354L335.29688 65.916664L334.09375 65.916664ZM336.5 63.65104L337.5625 63.510414Q337.73438 64.40104 338.17188 64.80729Q338.60938 65.197914 339.23438 65.197914Q339.98438 65.197914 340.5 64.68229Q341.01562 64.166664 341.01562 63.40104Q341.01562 62.68229 340.53125 62.21354Q340.0625 61.729164 339.32812 61.729164Q339.03125 61.729164 338.57812 61.854164L338.70312 60.916664Q338.8125 60.93229 338.875 60.93229Q339.54688 60.93229 340.07812 60.58854Q340.625 60.229164 340.625 59.49479Q340.625 58.916664 340.23438 58.541664Q339.84375 58.15104 339.21875 58.15104Q338.60938 58.15104 338.1875 58.541664Q337.78125 58.93229 337.67188 59.697914L336.60938 59.510414Q336.79688 58.46354 337.48438 57.885414Q338.17188 57.291664 339.1875 57.291664Q339.89062 57.291664 340.48438 57.604164Q341.07812 57.90104 341.39062 58.416664Q341.70312 58.93229 341.70312 59.52604Q341.70312 60.072914 341.40625 60.541664Q341.10938 60.99479 340.53125 61.260414Q341.28125 61.43229 341.70312 61.99479Q342.125 62.541664 342.125 63.385414Q342.125 64.510414 341.29688 65.291664Q340.48438 66.072914 339.23438 66.072914Q338.10938 66.072914 337.35938 65.40104Q336.60938 64.71354 336.5 63.65104ZM343.375 58.90104L343.64062 58.072914Q344.57812 58.40104 345.0 58.635414Q344.89062 57.572914 344.875 57.18229L345.73438 57.18229Q345.71875 57.760414 345.59375 58.635414Q346.20312 58.322914 346.98438 58.072914L347.25 58.90104Q346.5 59.15104 345.79688 59.229164Q346.14062 59.541664 346.79688 60.33854L346.09375 60.83854Q345.75 60.36979 345.29688 59.572914Q344.85938 60.40104 344.53125 60.83854L343.84375 60.33854Q344.51562 59.49479 344.8125 59.229164Q344.0625 59.08854 343.375 58.90104ZM348.09375 65.916664L350.35938 62.68229L348.26562 59.697914L349.57812 59.697914L350.53125 61.15104Q350.79688 61.572914 350.96875 61.854164Q351.21875 61.46354 351.4375 61.166664L352.48438 59.697914L353.75 59.697914L351.59375 62.61979L353.90625 65.916664L352.625 65.916664L351.34375 63.979164L351.0 63.46354L349.35938 65.916664L348.09375 65.916664ZM359.0 64.52604L359.0 62.166664L356.67188 62.166664L356.67188 61.18229L359.0 61.18229L359.0 58.854164L360.0 58.854164L360.0 61.18229L362.34375 61.18229L362.34375 62.166664L360.0 62.166664L360.0 64.52604L359.0 64.52604ZM372.04688 64.90104L372.04688 65.916664L366.35938 65.916664Q366.35938 65.541664 366.48438 65.18229Q366.70312 64.604164 367.17188 64.041664Q367.65625 63.479164 368.5625 62.74479Q369.96875 61.58854 370.45312 60.916664Q370.95312 60.24479 370.95312 59.65104Q370.95312 59.02604 370.5 58.604164Q370.04688 58.166664 369.32812 58.166664Q368.5625 58.166664 368.10938 58.61979Q367.65625 59.072914 367.64062 59.885414L366.5625 59.77604Q366.67188 58.55729 367.39062 57.93229Q368.125 57.291664 369.35938 57.291664Q370.59375 57.291664 371.3125 57.979164Q372.03125 58.666664 372.03125 59.68229Q372.03125 60.197914 371.8125 60.697914Q371.60938 61.18229 371.10938 61.74479Q370.625 62.291664 369.5 63.24479Q368.54688 64.041664 368.26562 64.33854Q368.0 64.61979 367.82812 64.90104L372.04688 64.90104ZM373.5 61.68229Q373.5 60.15104 373.8125 59.229164Q374.125 58.291664 374.73438 57.791664Q375.35938 57.291664 376.29688 57.291664Q376.98438 57.291664 377.5 57.572914Q378.03125 57.854164 378.375 58.385414Q378.71875 58.90104 378.90625 59.65104Q379.09375 60.40104 379.09375 61.68229Q379.09375 63.197914 378.78125 64.11979Q378.48438 65.041664 377.85938 65.55729Q377.25 66.05729 376.29688 66.05729Q375.0625 66.05729 374.34375 65.166664Q373.5 64.104164 373.5 61.68229ZM374.57812 61.68229Q374.57812 63.791664 375.07812 64.49479Q375.57812 65.197914 376.29688 65.197914Q377.03125 65.197914 377.51562 64.49479Q378.01562 63.791664 378.01562 61.68229Q378.01562 59.55729 377.51562 58.86979Q377.03125 58.166664 376.28125 58.166664Q375.5625 58.166664 375.125 58.77604Q374.57812 59.55729 374.57812 61.68229ZM381.09375 65.916664L381.09375 64.71354L382.29688 64.71354L382.29688 65.916664L381.09375 65.916664ZM386.875 65.916664L386.875 63.854164L383.15625 63.854164L383.15625 62.885414L387.07812 57.322914L387.9375 57.322914L387.9375 62.885414L389.09375 62.885414L389.09375 63.854164L387.9375 63.854164L387.9375 65.916664L386.875 65.916664ZM386.875 62.885414L386.875 59.02604L384.1875 62.885414L386.875 62.885414Z" fill-rule="nonzero"/><path fill="#757575" d="M23.7375 37.55L23.7375 24.925L19.01875 24.925L19.01875 23.2375L30.3625 23.2375L30.3625 24.925L25.628124 24.925L25.628124 37.55L23.7375 37.55ZM31.878124 25.253124L31.878124 23.2375L33.64375 23.2375L33.64375 25.253124L31.878124 25.253124ZM31.878124 37.55L31.878124 27.175L33.64375 27.175L33.64375 37.55L31.878124 37.55ZM35.8625 37.55L35.8625 27.175L37.440624 27.175L37.440624 28.628124Q37.925 27.878124 38.7375 27.409374Q39.55 26.940624 40.58125 26.940624Q41.7375 26.940624 42.471874 27.425Q43.20625 27.89375 43.51875 28.753124Q44.753124 26.940624 46.721874 26.940624Q48.26875 26.940624 49.096874 27.8Q49.925 28.659374 49.925 30.425L49.925 37.55L48.175 37.55L48.175 31.01875Q48.175 29.95625 48.003124 29.503124Q47.83125 29.034374 47.378124 28.753124Q46.940624 28.471874 46.33125 28.471874Q45.2375 28.471874 44.503124 29.20625Q43.784374 29.925 43.784374 31.51875L43.784374 37.55L42.034374 37.55L42.034374 30.815624Q42.034374 29.64375 41.596874 29.065624Q41.175 28.471874 40.190624 28.471874Q39.45625 28.471874 38.815624 28.8625Q38.190624 29.253124 37.909374 30.003124Q37.628124 30.753124 37.628124 32.175L37.628124 37.55L35.8625 37.55ZM58.971874 34.20625L60.784374 34.440624Q60.3625 36.01875 59.190624 36.909374Q58.034374 37.784374 56.221874 37.784374Q53.95625 37.784374 52.6125 36.39375Q51.284374 34.9875 51.284374 32.45625Q51.284374 29.83125 52.628124 28.39375Q53.971874 26.940624 56.128124 26.940624Q58.20625 26.940624 59.51875 28.3625Q60.846874 29.76875 60.846874 32.346874Q60.846874 32.503124 60.83125 32.815624L53.096874 32.815624Q53.190624 34.51875 54.065624 35.425Q54.940624 36.33125 56.2375 36.33125Q57.20625 36.33125 57.878124 35.83125Q58.565624 35.315624 58.971874 34.20625ZM53.190624 31.3625L58.9875 31.3625Q58.878124 30.065624 58.33125 29.409374Q57.4875 28.39375 56.14375 28.39375Q54.940624 28.39375 54.1125 29.20625Q53.284374 30.003124 53.190624 31.3625ZM71.75313 37.55L67.8 27.175L69.65938 27.175L71.89375 33.39375Q72.25313 34.39375 72.55 35.471874Q72.78438 34.659374 73.20625 33.503124L75.50313 27.175L77.31563 27.175L73.39375 37.55L71.75313 37.55ZM77.15938 34.45625L78.90938 34.175Q79.05 35.221874 79.72188 35.784374Q80.39375 36.33125 81.59688 36.33125Q82.8 36.33125 83.37813 35.846874Q83.97188 35.346874 83.97188 34.690624Q83.97188 34.096874 83.45625 33.753124Q83.09688 33.51875 81.65938 33.159374Q79.72188 32.659374 78.97188 32.315624Q78.2375 31.95625 77.84688 31.33125Q77.45625 30.690624 77.45625 29.925Q77.45625 29.2375 77.76875 28.64375Q78.09688 28.05 78.64375 27.659374Q79.05 27.3625 79.75313 27.159374Q80.47188 26.940624 81.28438 26.940624Q82.50313 26.940624 83.425 27.3Q84.34688 27.64375 84.78438 28.253124Q85.22188 28.846874 85.39375 29.846874L83.675 30.08125Q83.55 29.284374 82.9875 28.846874Q82.425 28.39375 81.40938 28.39375Q80.19063 28.39375 79.675 28.8Q79.15938 29.190624 79.15938 29.721874Q79.15938 30.065624 79.37813 30.346874Q79.58125 30.628124 80.05 30.815624Q80.31563 30.909374 81.59688 31.253124Q83.47188 31.753124 84.20625 32.08125Q84.94063 32.39375 85.3625 33.003124Q85.78438 33.596874 85.78438 34.503124Q85.78438 35.378124 85.26875 36.159374Q84.75313 36.940624 83.78438 37.3625Q82.81563 37.784374 81.59688 37.784374Q79.58125 37.784374 78.51875 36.940624Q77.45625 36.096874 77.15938 34.45625ZM88.3625 37.55L88.3625 35.55L90.3625 35.55L90.3625 37.55L88.3625 37.55ZM100.09688 37.55L100.09688 23.2375L105.01875 23.2375Q106.69063 23.2375 107.58125 23.440624Q108.8 23.721874 109.675 24.45625Q110.8 25.425 111.3625 26.909374Q111.925 28.39375 111.925 30.315624Q111.925 31.940624 111.55 33.20625Q111.175 34.45625 110.56563 35.284374Q109.97188 36.1125 109.26875 36.596874Q108.56563 37.065624 107.56563 37.315624Q106.56563 37.55 105.25313 37.55L100.09688 37.55ZM101.9875 35.8625L105.05 35.8625Q106.45625 35.8625 107.25313 35.596874Q108.06563 35.33125 108.55 34.846874Q109.22188 34.175 109.59688 33.05Q109.97188 31.909374 109.97188 30.284374Q109.97188 28.034374 109.2375 26.83125Q108.50313 25.628124 107.44063 25.221874Q106.69063 24.925 105.00313 24.925L101.9875 24.925L101.9875 35.8625ZM113.87813 25.253124L113.87813 23.2375L115.64375 23.2375L115.64375 25.253124L113.87813 25.253124ZM113.87813 37.55L113.87813 27.175L115.64375 27.175L115.64375 37.55L113.87813 37.55ZM117.15938 34.45625L118.90938 34.175Q119.05 35.221874 119.72188 35.784374Q120.39375 36.33125 121.59688 36.33125Q122.8 36.33125 123.37813 35.846874Q123.97188 35.346874 123.97188 34.690624Q123.97188 34.096874 123.45625 33.753124Q123.09688 33.51875 121.65938 33.159374Q119.72188 32.659374 118.97188 32.315624Q118.2375 31.95625 117.84688 31.33125Q117.45625 30.690624 117.45625 29.925Q117.45625 29.2375 117.76875 28.64375Q118.09688 28.05 118.64375 27.659374Q119.05 27.3625 119.75313 27.159374Q120.47188 26.940624 121.28438 26.940624Q122.50313 26.940624 123.425 27.3Q124.34688 27.64375 124.78438 28.253124Q125.22188 28.846874 125.39375 29.846874L123.675 30.08125Q123.55 29.284374 122.9875 28.846874Q122.425 28.39375 121.40938 28.39375Q120.19063 28.39375 119.675 28.8Q119.15938 29.190624 119.15938 29.721874Q119.15938 30.065624 119.37813 30.346874Q119.58125 30.628124 120.05 30.815624Q120.31563 30.909374 121.59688 31.253124Q123.47188 31.753124 124.20625 32.08125Q124.94063 32.39375 125.3625 33.003124Q125.78438 33.596874 125.78438 34.503124Q125.78438 35.378124 125.26875 36.159374Q124.75313 36.940624 123.78438 37.3625Q122.81563 37.784374 121.59688 37.784374Q119.58125 37.784374 118.51875 36.940624Q117.45625 36.096874 117.15938 34.45625ZM131.70625 35.971874L131.95625 37.534374Q131.22188 37.690624 130.62813 37.690624Q129.675 37.690624 129.14375 37.39375Q128.62813 37.08125 128.40938 36.596874Q128.19063 36.096874 128.19063 34.51875L128.19063 28.55L126.90938 28.55L126.90938 27.175L128.19063 27.175L128.19063 24.6125L129.94063 23.55L129.94063 27.175L131.70625 27.175L131.70625 28.55L129.94063 28.55L129.94063 34.6125Q129.94063 35.3625 130.03438 35.58125Q130.12813 35.784374 130.33125 35.925Q130.55 36.05 130.94063 36.05Q131.22188 36.05 131.70625 35.971874ZM140.64375 36.26875Q139.65938 37.096874 138.75313 37.440624Q137.84688 37.784374 136.81563 37.784374Q135.1125 37.784374 134.19063 36.95625Q133.26875 36.1125 133.26875 34.815624Q133.26875 34.05 133.6125 33.425Q133.97188 32.8 134.53438 32.425Q135.09688 32.034374 135.8 31.83125Q136.31563 31.70625 137.3625 31.565624Q139.4875 31.315624 140.4875 30.971874Q140.50313 30.6125 140.50313 30.503124Q140.50313 29.440624 140.00313 28.9875Q139.33125 28.39375 138.00313 28.39375Q136.75313 28.39375 136.15938 28.83125Q135.58125 29.26875 135.3 30.378124L133.58125 30.14375Q133.81563 29.034374 134.34688 28.3625Q134.87813 27.675 135.89375 27.315624Q136.90938 26.940624 138.25313 26.940624Q139.58125 26.940624 140.40938 27.253124Q141.2375 27.565624 141.62813 28.05Q142.01875 28.51875 142.175 29.2375Q142.26875 29.690624 142.26875 30.8625L142.26875 33.20625Q142.26875 35.659374 142.37813 36.315624Q142.4875 36.95625 142.83125 37.55L140.9875 37.55Q140.72188 37.003124 140.64375 36.26875ZM140.4875 32.346874Q139.53438 32.7375 137.6125 33.003124Q136.53438 33.159374 136.08125 33.3625Q135.64375 33.55 135.39375 33.925Q135.14375 34.3 135.14375 34.76875Q135.14375 35.471874 135.675 35.940624Q136.20625 36.409374 137.2375 36.409374Q138.25313 36.409374 139.03438 35.971874Q139.83125 35.51875 140.20625 34.753124Q140.4875 34.14375 140.4875 32.9875L140.4875 32.346874ZM144.8625 37.55L144.8625 27.175L146.45625 27.175L146.45625 28.659374Q147.59688 26.940624 149.75313 26.940624Q150.69063 26.940624 151.47188 27.284374Q152.26875 27.6125 152.65938 28.159374Q153.05 28.70625 153.20625 29.45625Q153.3 29.95625 153.3 31.175L153.3 37.55L151.53438 37.55L151.53438 31.2375Q151.53438 30.159374 151.33125 29.628124Q151.12813 29.096874 150.59688 28.784374Q150.08125 28.471874 149.37813 28.471874Q148.25313 28.471874 147.44063 29.190624Q146.62813 29.89375 146.62813 31.878124L146.62813 37.55L144.8625 37.55ZM161.64375 33.753124L163.3625 33.971874Q163.08125 35.76875 161.90938 36.784374Q160.75313 37.784374 159.05 37.784374Q156.925 37.784374 155.62813 36.39375Q154.33125 35.003124 154.33125 32.409374Q154.33125 30.721874 154.87813 29.471874Q155.44063 28.20625 156.58125 27.58125Q157.72188 26.940624 159.06563 26.940624Q160.75313 26.940624 161.81563 27.8Q162.89375 28.659374 163.20625 30.221874L161.4875 30.4875Q161.25313 29.440624 160.62813 28.925Q160.00313 28.39375 159.12813 28.39375Q157.8 28.39375 156.97188 29.346874Q156.14375 30.3 156.14375 32.346874Q156.14375 34.440624 156.94063 35.39375Q157.7375 36.33125 159.03438 36.33125Q160.06563 36.33125 160.75313 35.70625Q161.45625 35.065624 161.64375 33.753124ZM171.97188 34.20625L173.78438 34.440624Q173.3625 36.01875 172.19063 36.909374Q171.03438 37.784374 169.22188 37.784374Q166.95625 37.784374 165.6125 36.39375Q164.28438 34.9875 164.28438 32.45625Q164.28438 29.83125 165.62813 28.39375Q166.97188 26.940624 169.12813 26.940624Q171.20625 26.940624 172.51875 28.3625Q173.84688 29.76875 173.84688 32.346874Q173.84688 32.503124 173.83125 32.815624L166.09688 32.815624Q166.19063 34.51875 167.06563 35.425Q167.94063 36.33125 169.2375 36.33125Q170.20625 36.33125 170.87813 35.83125Q171.56563 35.315624 171.97188 34.20625ZM166.19063 31.3625L171.9875 31.3625Q171.87813 30.065624 171.33125 29.409374Q170.4875 28.39375 169.14375 28.39375Q167.94063 28.39375 167.1125 29.20625Q166.28438 30.003124 166.19063 31.3625Z" fill-rule="nonzero"/></svg>